<svg width="451" height="171" viewBox="0 0 451 171" fill="none" xmlns="http://www.w3.org/2000/svg">
<path fill-rule="evenodd" clip-rule="evenodd" d="M374 85.5H450V170.5H374V85.5ZM391 106H428.5V149H391V106Z" fill="#F5DD00"/>
<path fill-rule="evenodd" clip-rule="evenodd" d="M123 85.5H199V170.5H123V85.5ZM140 106H177.5V149H140V106Z" fill="#F5DD00"/>
<path fill-rule="evenodd" clip-rule="evenodd" d="M229 1V170.5H292.5L351 133V41.5L292.5 1H229ZM249 149V25.5H279.5L322.5 55.5V121.5L279.5 149H249Z" fill="#F5DD00"/>
<path d="M51.5 41.5V170.5H98.5V41.5H51.5Z" fill="#F5DD00"/>
<path d="M157.5 1H1V41.5H51.5H98.5H157.5V1Z" fill="#F5DD00"/>
<path d="M51.5 41.5H1V1H157.5V41.5H98.5M51.5 41.5V170.5H98.5V41.5M51.5 41.5H98.5M123 85.5H199V170.5H123V85.5ZM229 1V170.5H292.5L351 133V41.5L292.5 1H229ZM249 25.5V149H279.5L322.5 121.5V55.5L279.5 25.5H249ZM177.5 106H140V149H177.5V106ZM374 85.5H450V170.5H374V85.5ZM428.5 106H391V149H428.5V106Z" stroke="black"/>
</svg>
