<svg width="61" height="61" viewBox="0 0 61 61" fill="none" xmlns="http://www.w3.org/2000/svg">
<mask id="path-1-inside-1" fill="white">
<path fill-rule="evenodd" clip-rule="evenodd" d="M30.3964 60.3965C46.9649 60.3965 60.3964 46.965 60.3964 30.3965C60.3964 13.8279 46.9649 0.396484 30.3964 0.396484C13.8278 0.396484 0.396362 13.8279 0.396362 30.3965C0.396362 46.965 13.8278 60.3965 30.3964 60.3965ZM24.7714 49.5214V36.3964H11.6464V25.1464H24.7714V12.0214H36.0214V25.1464H49.1464V36.3964H36.0214V49.5214H24.7714Z"/>
</mask>
<path fill-rule="evenodd" clip-rule="evenodd" d="M30.3964 60.3965C46.9649 60.3965 60.3964 46.965 60.3964 30.3965C60.3964 13.8279 46.9649 0.396484 30.3964 0.396484C13.8278 0.396484 0.396362 13.8279 0.396362 30.3965C0.396362 46.965 13.8278 60.3965 30.3964 60.3965ZM24.7714 49.5214V36.3964H11.6464V25.1464H24.7714V12.0214H36.0214V25.1464H49.1464V36.3964H36.0214V49.5214H24.7714Z" fill="#F5DD00"/>
<path d="M24.7714 36.3964H25.7714V35.3964H24.7714V36.3964ZM24.7714 49.5214H23.7714V50.5214H24.7714V49.5214ZM11.6464 36.3964H10.6464V37.3964H11.6464V36.3964ZM11.6464 25.1464V24.1464H10.6464V25.1464H11.6464ZM24.7714 25.1464V26.1464H25.7714V25.1464H24.7714ZM24.7714 12.0214V11.0214H23.7714V12.0214H24.7714ZM36.0214 12.0214H37.0214V11.0214H36.0214V12.0214ZM36.0214 25.1464H35.0214V26.1464H36.0214V25.1464ZM49.1464 25.1464H50.1464V24.1464H49.1464V25.1464ZM49.1464 36.3964V37.3964H50.1464V36.3964H49.1464ZM36.0214 36.3964V35.3964H35.0214V36.3964H36.0214ZM36.0214 49.5214V50.5214H37.0214V49.5214H36.0214ZM59.3964 30.3965C59.3964 46.4127 46.4126 59.3965 30.3964 59.3965V61.3965C47.5172 61.3965 61.3964 47.5173 61.3964 30.3965H59.3964ZM30.3964 1.39648C46.4126 1.39648 59.3964 14.3802 59.3964 30.3965H61.3964C61.3964 13.2757 47.5172 -0.603516 30.3964 -0.603516V1.39648ZM1.39636 30.3965C1.39636 14.3802 14.3801 1.39648 30.3964 1.39648V-0.603516C13.2755 -0.603516 -0.603638 13.2757 -0.603638 30.3965H1.39636ZM30.3964 59.3965C14.3801 59.3965 1.39636 46.4127 1.39636 30.3965H-0.603638C-0.603638 47.5173 13.2755 61.3965 30.3964 61.3965V59.3965ZM23.7714 36.3964V49.5214H25.7714V36.3964H23.7714ZM11.6464 37.3964H24.7714V35.3964H11.6464V37.3964ZM10.6464 25.1464V36.3964H12.6464V25.1464H10.6464ZM24.7714 24.1464H11.6464V26.1464H24.7714V24.1464ZM23.7714 12.0214V25.1464H25.7714V12.0214H23.7714ZM36.0214 11.0214H24.7714V13.0214H36.0214V11.0214ZM37.0214 25.1464V12.0214H35.0214V25.1464H37.0214ZM49.1464 24.1464H36.0214V26.1464H49.1464V24.1464ZM50.1464 36.3964V25.1464H48.1464V36.3964H50.1464ZM36.0214 37.3964H49.1464V35.3964H36.0214V37.3964ZM37.0214 49.5214V36.3964H35.0214V49.5214H37.0214ZM24.7714 50.5214H36.0214V48.5214H24.7714V50.5214Z" fill="#C4C4C4" mask="url(#path-1-inside-1)"/>
</svg>
